<svg width="17" height="16" viewBox="0 0 17 16" fill="none" xmlns="http://www.w3.org/2000/svg">
<path d="M11.8502 2.92046L13.1098 1.6601C13.3723 1.39752 13.7285 1.25 14.0998 1.25C14.4712 1.25 14.8273 1.39752 15.0899 1.6601C15.3525 1.92268 15.5 2.27882 15.5 2.65017C15.5 3.02151 15.3525 3.37765 15.0899 3.64023L7.16115 11.569C6.76641 11.9635 6.27962 12.2535 5.74474 12.4127L3.73997 13.01L4.3373 11.0053C4.49654 10.4704 4.78651 9.98359 5.18102 9.58885L11.8502 2.92046ZM11.8502 2.92046L13.8198 4.89014M12.6999 10.0234V13.57C12.6999 14.0156 12.5229 14.4429 12.2078 14.7579C11.8927 15.073 11.4654 15.25 11.0199 15.25H3.17998C2.73442 15.25 2.30711 15.073 1.99205 14.7579C1.677 14.4429 1.5 14.0156 1.5 13.57V5.73013C1.5 5.28457 1.677 4.85726 1.99205 4.5422C2.30711 4.22714 2.73442 4.05015 3.17998 4.05015H6.7266" stroke="#1D2939" stroke-width="1.2" stroke-linecap="round" stroke-linejoin="round"/>
</svg>
