<svg width="42" height="42" viewBox="0 0 42 42" fill="none" xmlns="http://www.w3.org/2000/svg">
<rect width="42" height="42" rx="5" fill="#34B5AD"/>
<path d="M30.8208 18.721C30.6048 18.5293 30.2738 18.5502 30.0821 18.7663L29.2703 19.6861C28.6535 15.6129 25.1274 12.4805 20.8834 12.4805C17.5977 12.4805 14.5802 14.4038 13.1899 17.3795C13.068 17.6408 13.1795 17.9509 13.4443 18.0729C13.7056 18.1948 14.0157 18.0833 14.1377 17.8185C15.3572 15.2122 18.0018 13.5258 20.8834 13.5258C24.5559 13.5258 27.6082 16.2053 28.2075 19.707L27.3399 18.944C27.1239 18.7523 26.7929 18.7732 26.6012 18.9893C26.4096 19.2053 26.4305 19.5363 26.6465 19.7279L28.4967 21.3586C28.4967 21.3586 28.5037 21.3621 28.5072 21.3656C28.549 21.4004 28.5978 21.4318 28.6535 21.4527C28.6605 21.4527 28.6675 21.4562 28.6744 21.4597C28.7267 21.4771 28.7825 21.491 28.8417 21.491C28.88 21.491 28.9149 21.4875 28.9497 21.4806C28.9567 21.4806 28.9602 21.4771 28.9671 21.4771C28.995 21.4701 29.0229 21.4632 29.0508 21.4492C29.0612 21.4457 29.0717 21.4388 29.0821 21.4318C29.103 21.4213 29.1239 21.4109 29.1448 21.397C29.1553 21.39 29.1657 21.3795 29.1762 21.3726C29.1936 21.3586 29.211 21.3447 29.2285 21.3273C29.2319 21.3238 29.2354 21.3203 29.2389 21.3168L30.8696 19.4666C31.0612 19.2506 31.0403 18.9196 30.8243 18.7279L30.8208 18.721Z" fill="white"/>
<path d="M28.3222 23.8569C28.0608 23.735 27.7507 23.8465 27.6288 24.1113C26.4092 26.7211 23.7611 28.4075 20.883 28.4075C17.2105 28.4075 14.1582 25.728 13.5589 22.2262L14.4265 22.9893C14.6425 23.181 14.9736 23.1601 15.1652 22.944C15.3568 22.728 15.3359 22.397 15.1199 22.2053L13.2697 20.5747C13.2697 20.5747 13.2523 20.5642 13.2453 20.5572C13.2314 20.5468 13.214 20.5328 13.2 20.5259C13.1861 20.5154 13.1721 20.5085 13.1582 20.5015C13.1443 20.4945 13.1269 20.4875 13.1094 20.4806C13.092 20.4736 13.0781 20.4701 13.0606 20.4666C13.0432 20.4632 13.0293 20.4597 13.0119 20.4562C12.9944 20.4562 12.977 20.4527 12.9561 20.4492C12.9457 20.4492 12.9352 20.4492 12.9248 20.4492C12.9178 20.4492 12.9143 20.4492 12.9073 20.4492C12.8899 20.4492 12.8725 20.4492 12.8551 20.4562C12.8376 20.4562 12.8202 20.4597 12.8063 20.4632C12.7889 20.4666 12.7749 20.4736 12.761 20.4771C12.7436 20.4841 12.7262 20.4875 12.7122 20.4945C12.6983 20.5015 12.6843 20.5085 12.6704 20.5154C12.653 20.5259 12.639 20.5328 12.6251 20.5433C12.6112 20.5537 12.6007 20.5607 12.5903 20.5712C12.5763 20.5851 12.5624 20.5956 12.5484 20.6095C12.545 20.613 12.5415 20.6165 12.538 20.62L10.8969 22.4701C10.7052 22.6862 10.7261 23.0172 10.9422 23.2088C11.0432 23.2959 11.1652 23.3378 11.2871 23.3378C11.4335 23.3378 11.5763 23.2785 11.6808 23.1601L12.4927 22.2402C13.1094 26.3169 16.6356 29.4493 20.883 29.4493C24.1653 29.4493 27.1863 27.526 28.5765 24.5503C28.6985 24.289 28.587 23.9789 28.3222 23.8569Z" fill="white"/>
<path d="M20.8828 26.3448C23.8549 26.3448 26.2626 23.9371 26.2626 20.9649C26.2626 17.9928 23.8549 15.5851 20.8828 15.5851C17.9106 15.5851 15.5029 17.9928 15.5029 20.9649C15.5029 23.9371 17.9106 26.3448 20.8828 26.3448ZM22.2765 17.4632L21.402 20.6723H22.6459L19.4856 24.4667L20.3601 21.2576H19.1162L22.2765 17.4632Z" fill="white"/>
</svg>
