<svg width="42" height="42" viewBox="0 0 42 42" fill="none" xmlns="http://www.w3.org/2000/svg">
<rect width="42" height="42" rx="5" fill="#732ACF"/>
<path d="M23.782 26.4026H21.1049V25.0737H19.6811V26.4026H17.004C16.7005 26.4026 16.4512 26.633 16.4512 26.9133V27.4891C16.4512 27.7695 16.7005 27.9998 17.004 27.9998H23.782C24.0855 27.9998 24.3348 27.7695 24.3348 27.4891V26.9133C24.3348 26.633 24.0855 26.4026 23.782 26.4026Z" fill="white"/>
<path d="M12.6854 19.5824L11.342 24.0935C11.255 24.3829 11.4502 24.6193 11.7767 24.6193H14.7129L16.2122 19.5824H12.6854Z" fill="white"/>
<path d="M20.3428 19.0369L21.8421 14H18.4876L16.9883 19.0369H20.3428Z" fill="white"/>
<path d="M24.3096 19.0369L25.8106 14H22.456L20.9551 19.0369H24.3096Z" fill="white"/>
<path d="M23.2598 24.6193H26.196C26.5208 24.6193 26.8571 24.3829 26.944 24.0935L28.2875 19.5824H24.7607L23.2614 24.6193H23.2598Z" fill="white"/>
<path d="M17.8754 14H14.9391C14.6143 14 14.2781 14.2364 14.1911 14.5258L12.8477 19.0369H16.3745L17.8754 14Z" fill="white"/>
<path d="M29.3574 14.0002H26.4212L24.9219 19.0371H28.4487L29.7921 14.5261C29.8791 14.2366 29.6839 14.0002 29.3574 14.0002Z" fill="white"/>
<path d="M20.18 19.5824H16.8255L15.3262 24.6193H18.6791L20.18 19.5824Z" fill="white"/>
<path d="M19.293 24.6193H22.6475L24.1468 19.5824H20.7923L19.293 24.6193Z" fill="white"/>
</svg>
