<svg width="41" height="41" viewBox="0 0 41 41" fill="none" xmlns="http://www.w3.org/2000/svg">
<rect width="41" height="41" rx="5" fill="#F7B638"/>
<path d="M28.2792 15.7807H26.4829L25.5823 13.3503C25.4798 13.0728 25.1691 12.9308 24.8915 13.0333L17.4679 15.7807H12.7192C12.3233 15.7807 12 16.104 12 16.4999V16.9446H29V16.4999C29 16.104 28.6767 15.7807 28.2808 15.7807H28.2792Z" fill="white"/>
<path d="M21.0879 22.7705V24.2246C21.3497 24.1805 21.8055 24.0212 21.8055 23.4566C21.8055 23.108 21.438 22.9077 21.0879 22.7721V22.7705Z" fill="white"/>
<path d="M27.1311 17.5298H12.7192C12.3233 17.5298 12 17.8531 12 18.249V26.346C12 26.7419 12.3233 27.0652 12.7192 27.0652H28.2792C28.6751 27.0652 28.9984 26.7419 28.9984 26.346V17.5298H27.1295H27.1311ZM21.0638 24.996V25.518C21.0638 25.5543 21.0339 25.5827 20.9992 25.5827H20.3999C20.3636 25.5827 20.3352 25.5527 20.3352 25.518V24.9723C19.258 24.8162 18.7375 24.2027 18.6981 23.0419C18.6981 23.0245 18.7044 23.0072 18.717 22.9946C18.7297 22.982 18.747 22.9741 18.7644 22.9741H19.5009C19.5356 22.9741 19.564 23.0009 19.5655 23.0356C19.5987 23.7106 19.8337 24.0639 20.3462 24.1964V22.5404C20.2358 22.5072 20.127 22.4725 20.0198 22.4315C19.4189 22.2076 18.8968 21.8417 18.8968 21.0752C18.8968 20.2346 19.6144 19.681 20.3084 19.569V19.077C20.3084 19.0407 20.3383 19.0123 20.373 19.0123H20.9976C21.0339 19.0123 21.0623 19.0423 21.0623 19.077V19.5675C21.9817 19.6968 22.5495 20.3702 22.5495 21.337C22.5495 21.3733 22.5195 21.4017 22.4848 21.4017H21.7609C21.7246 21.4017 21.6963 21.3717 21.6963 21.337C21.6963 20.7755 21.4944 20.4585 21.0638 20.3434V21.9679C21.1001 21.9789 21.138 21.9899 21.1758 22.001C21.8571 22.2123 22.663 22.5971 22.663 23.4535C22.663 24.2594 21.9943 24.8998 21.0638 24.9944V24.996Z" fill="white"/>
<path d="M19.7646 21.1192C19.7646 21.3889 19.9413 21.5861 20.3214 21.7375V20.3464C20.0848 20.4158 19.7646 20.6035 19.7646 21.1192Z" fill="white"/>
</svg>
