<svg width="41" height="41" viewBox="0 0 41 41" fill="none" xmlns="http://www.w3.org/2000/svg">
<rect width="41" height="41" rx="5" fill="#AEBD00"/>
<path d="M27.9582 17.5491L28.337 15.1441L26.2719 13.8553L25.2895 11.6268L22.8549 11.6584L20.8232 10.3138L18.7916 11.6565L16.3569 11.6249L15.3745 13.8535L13.3095 15.1423L13.6883 17.5472L12.6465 19.7497L14.2659 21.5696L14.5797 23.9839L16.9252 24.6394L18.4963 26.5002L20.8232 25.7834L23.1502 26.5002L24.7213 24.6394L27.0668 23.9839L27.3806 21.5696L29 19.7497L27.96 17.5491H27.9582ZM20.8232 24.1566C17.6532 24.1566 15.0737 21.5771 15.0737 18.407C15.0737 15.237 17.6532 12.6575 20.8232 12.6575C23.9933 12.6575 26.5728 15.237 26.5728 18.407C26.5728 21.5771 23.9933 24.1566 20.8232 24.1566Z" fill="white"/>
<path d="M20.8232 26.7342L18.3774 27.4863L17.2725 26.179V30.6861L20.8232 28.8216L24.3721 30.6861V26.179L23.2671 27.4863L20.8232 26.7342Z" fill="white"/>
<path d="M20.8231 22.9607C23.3376 22.9607 25.3767 20.9216 25.3767 18.4071C25.3767 15.8926 23.3376 13.8535 20.8231 13.8535C18.3086 13.8535 16.2695 15.8926 16.2695 18.4071C16.2695 20.9216 18.3086 22.9607 20.8231 22.9607ZM22.0042 15.4432L21.2651 18.1601H22.3162L19.6401 21.371L20.3793 18.6541H19.3282L22.0042 15.4432Z" fill="white"/>
</svg>
