<svg width="41" height="41" viewBox="0 0 41 41" fill="none" xmlns="http://www.w3.org/2000/svg">
<rect width="41" height="41" rx="5" fill="#F98700"/>
<path d="M27.2189 20.1353H13.7801C13.3488 20.1353 12.999 20.4544 12.999 20.8479V27.2898C12.999 27.6833 13.3488 28.0025 13.7801 28.0025H27.2189C27.6501 28.0025 27.9999 27.6833 27.9999 27.2898V20.8479C27.9999 20.4544 27.6501 20.1353 27.2189 20.1353ZM20.5699 24.1262C20.5767 24.1479 20.8789 25.8381 21.047 26.9087H19.9502C20.1183 25.8366 20.4205 24.1479 20.4273 24.1262C17.4713 24.6065 17.5137 22.5227 17.5137 22.5227C20.0775 22.1695 20.4409 23.6645 20.4901 24.0332C20.4952 24.0332 20.5003 24.0332 20.5054 24.0332C20.5546 23.6645 20.918 22.1695 23.4818 22.5227C23.4818 22.5227 23.5243 24.6049 20.5682 24.1262H20.5699Z" fill="white"/>
<path d="M26.3096 17.4829C26.3096 17.1777 26.0379 16.9313 25.7051 16.9313H24.6966V14.0001C24.6966 13.447 24.2059 12.9993 23.5997 12.9993C22.9936 12.9993 22.5029 13.447 22.5029 14.0001V16.9313H18.4942V14.0001C18.4942 13.447 18.0035 12.9993 17.3973 12.9993C16.7912 12.9993 16.3005 13.447 16.3005 14.0001V16.9313H15.2919C14.9575 16.9313 14.6875 17.1792 14.6875 17.4829V19.6333H26.3062V17.4829H26.3096Z" fill="white"/>
</svg>
